<svg width="166" height="69" viewBox="0 0 166 69" fill="none" xmlns="http://www.w3.org/2000/svg">
<g clip-path="url(#clip0_51_924)">
<path d="M44.9588 33.144H25.6387V56.3356H44.9588V33.144Z" fill="url(#paint0_linear_51_924)"/>
<path d="M19.3391 9.54522C19.3391 14.3052 15.108 18.129 9.87735 18.129C4.64668 18.129 0.420898 14.284 0.420898 9.54522C0.420898 4.80641 4.65726 0.961426 9.87735 0.961426C15.0974 0.961426 19.3391 4.80113 19.3391 9.54522Z" fill="url(#paint1_linear_51_924)"/>
<path d="M0.00878906 68.9814V21.3818H19.3395V68.9814H0.00878906Z" fill="url(#paint2_linear_51_924)"/>
<path d="M81.2561 27.4374C75.8368 23.3756 67.9565 21.3429 57.615 21.3394H25.6387V33.1441H54.5739C59.549 33.1441 63.1313 34.052 65.3209 35.8678C67.5104 37.6836 68.607 40.6366 68.6105 44.7266C68.6105 48.8413 67.5245 51.8066 65.3526 53.6225C63.1806 55.4383 59.5878 56.3427 54.5739 56.3356H25.6387V68.9813H57.615C68.0023 68.9813 75.8933 66.9592 81.2879 62.915C86.6825 58.8707 89.3833 52.9684 89.3904 45.2079C89.3904 37.4227 86.679 31.4992 81.2561 27.4374Z" fill="url(#paint3_linear_51_924)"/>
<path d="M134.377 55.4741C132.547 56.7082 130.135 57.3252 127.142 57.3252C123.006 57.3252 119.843 56.2851 117.654 54.2048C115.464 52.1245 114.367 49.1152 114.364 45.1768H93.584C93.584 53.0325 96.4047 58.963 102.046 62.9684C107.688 66.9738 116.051 68.9783 127.136 68.9818C137.009 68.9818 144.75 67.3793 150.36 64.1743C155.969 60.9692 159.28 56.2375 160.292 49.979H138.005C137.551 52.2108 136.251 54.1801 134.377 55.4741Z" fill="url(#paint4_linear_51_924)"/>
<path d="M117.654 36.1109C119.843 33.9954 123.006 32.9376 127.142 32.9376C130.382 32.9376 132.935 33.671 134.8 35.1378C136.665 36.6046 137.748 38.743 138.047 41.5532H160.144C159.791 35.0479 156.794 30.057 151.153 26.5804C145.512 23.1039 137.506 21.3639 127.136 21.3604C116.051 21.3604 107.688 23.3648 102.046 27.3738C96.4047 31.3827 93.584 37.3238 93.584 45.1972H114.364C114.364 41.2376 115.46 38.2088 117.654 36.1109Z" fill="url(#paint5_linear_51_924)"/>
<path d="M156.453 24.158C156.458 23.1805 156.802 22.2351 157.426 21.4825C158.05 20.7299 158.915 20.2165 159.875 20.0297C160.834 19.8428 161.829 19.994 162.69 20.4575C163.55 20.921 164.224 21.6683 164.596 22.5723C164.968 23.4762 165.015 24.4812 164.73 25.4162C164.445 26.3513 163.845 27.1587 163.032 27.7014C162.219 28.2441 161.243 28.4884 160.27 28.393C159.297 28.2975 158.388 27.8681 157.696 27.1777C157.293 26.7859 156.976 26.3158 156.762 25.7965C156.548 25.2771 156.443 24.7195 156.453 24.158ZM156.982 24.158C156.98 25.0244 157.279 25.8644 157.827 26.535C158.376 27.2057 159.14 27.6654 159.989 27.8358C160.839 28.0062 161.721 27.8768 162.486 27.4696C163.25 27.0624 163.85 26.4027 164.183 25.6028C164.516 24.8029 164.561 23.9124 164.31 23.083C164.06 22.2536 163.53 21.5367 162.81 21.0544C162.091 20.5721 161.226 20.3542 160.364 20.438C159.502 20.5218 158.695 20.902 158.082 21.5138C157.727 21.8559 157.447 22.267 157.257 22.7219C157.068 23.1767 156.974 23.6655 156.982 24.158ZM162.825 26.8023H161.847L161.276 25.496C161.17 25.2357 161.02 24.9959 160.832 24.7873C160.772 24.7142 160.697 24.6547 160.612 24.6127C160.527 24.5708 160.434 24.5474 160.34 24.5441H159.848V26.8023H159.044V21.3974H160.631C161.147 21.3685 161.658 21.5057 162.09 21.7888C162.263 21.9124 162.402 22.0774 162.494 22.2687C162.587 22.46 162.63 22.6714 162.619 22.8835C162.629 23.2331 162.502 23.5728 162.265 23.8301C161.995 24.112 161.64 24.2977 161.255 24.359C161.432 24.4224 161.589 24.532 161.71 24.6763C161.886 24.8866 162.034 25.1196 162.148 25.3691L162.825 26.8023ZM159.848 22.0426V23.846H160.647C160.934 23.8665 161.221 23.7861 161.456 23.6186C161.55 23.5327 161.623 23.4268 161.671 23.3087C161.718 23.1907 161.739 23.0634 161.731 22.9364C161.744 22.8073 161.725 22.6769 161.674 22.5575C161.623 22.4381 161.542 22.3337 161.44 22.2542C161.159 22.0898 160.834 22.0159 160.509 22.0426H159.848Z" fill="#2F59A3"/>
</g>
<defs>
<linearGradient id="paint0_linear_51_924" x1="35.3014" y1="30.7641" x2="35.3014" y2="53.358" gradientUnits="userSpaceOnUse">
<stop stop-color="#2F59A3"/>
<stop offset="1" stop-color="#2EA7E0"/>
</linearGradient>
<linearGradient id="paint1_linear_51_924" x1="9.87735" y1="22.0004" x2="9.87735" y2="1.34222" gradientUnits="userSpaceOnUse">
<stop stop-color="#2F59A3"/>
<stop offset="1" stop-color="#2EA7E0"/>
</linearGradient>
<linearGradient id="paint2_linear_51_924" x1="9.6715" y1="73.2548" x2="9.6715" y2="21.1914" gradientUnits="userSpaceOnUse">
<stop stop-color="#2F59A3"/>
<stop offset="1" stop-color="#2EA7E0"/>
</linearGradient>
<linearGradient id="paint3_linear_51_924" x1="57.5145" y1="74.0162" x2="57.5145" y2="22.6034" gradientUnits="userSpaceOnUse">
<stop stop-color="#2F59A3"/>
<stop offset="1" stop-color="#2EA7E0"/>
</linearGradient>
<linearGradient id="paint4_linear_51_924" x1="126.941" y1="40.2687" x2="126.941" y2="62.4819" gradientUnits="userSpaceOnUse">
<stop stop-color="#2F59A3"/>
<stop offset="1" stop-color="#2EA7E0"/>
</linearGradient>
<linearGradient id="paint5_linear_51_924" x1="126.877" y1="13.0727" x2="126.877" y2="42.045" gradientUnits="userSpaceOnUse">
<stop stop-color="#2F59A3"/>
<stop offset="1" stop-color="#2EA7E0"/>
</linearGradient>
<clipPath id="clip0_51_924">
<rect width="165.012" height="68.0198" fill="white" transform="translate(0.00878906 0.960938)"/>
</clipPath>
</defs>
</svg>
