<svg width="104" height="43" viewBox="0 0 104 43" fill="none" xmlns="http://www.w3.org/2000/svg">
<path d="M28.3322 20.4121H16.1547V35.0298H28.3322V20.4121Z" fill="white"/>
<path d="M12.1832 5.53744C12.1832 8.53744 9.51655 10.9474 6.21989 10.9474C2.92322 10.9474 0.259888 8.52411 0.259888 5.53744C0.259888 2.55077 2.92989 0.127441 6.21989 0.127441C9.50989 0.127441 12.1832 2.54744 12.1832 5.53744Z" fill="white"/>
<path d="M0.00012207 43.0007V12.9985H12.1843V43.0007H0.00012207Z" fill="white"/>
<path d="M51.2105 16.8153C47.7947 14.2551 42.8277 12.9739 36.3094 12.9717H16.1547V20.4122H34.3926C37.5284 20.4122 39.7864 20.9845 41.1665 22.129C42.5466 23.2735 43.2377 25.1348 43.24 27.7127C43.24 30.3063 42.5555 32.1753 41.1865 33.3198C39.8175 34.4643 37.5529 35.0344 34.3926 35.0299H16.1547V43.0005H36.3094C42.8566 43.0005 47.8303 41.726 51.2305 39.1769C54.6308 36.6278 56.3331 32.9076 56.3376 28.0161C56.3376 23.1091 54.6285 19.3755 51.2105 16.8153Z" fill="white"/>
<path d="M84.6928 34.4866C83.5394 35.2644 82.0193 35.6533 80.1325 35.6533C77.5256 35.6533 75.5322 34.9977 74.1521 33.6865C72.772 32.3753 72.0808 30.4785 72.0786 27.9961H58.981C58.981 32.9476 60.7589 36.6856 64.3147 39.2102C67.8705 41.7349 73.142 42.9983 80.1291 43.0005C86.3518 43.0005 91.2311 41.9904 94.7669 39.9703C98.3027 37.9501 100.389 34.9677 101.027 31.023H86.9796C86.6936 32.4297 85.8741 33.671 84.6928 34.4866Z" fill="white"/>
<path d="M74.1521 22.2822C75.5322 20.9488 77.5256 20.2821 80.1325 20.2821C82.1749 20.2821 83.7839 20.7443 84.9595 21.6688C86.1351 22.5933 86.8174 23.9412 87.0063 25.7124H100.934C100.712 21.6122 98.8227 18.4664 95.2669 16.2751C91.7111 14.0838 86.6652 12.9871 80.1291 12.9849C73.142 12.9849 67.8705 14.2483 64.3147 16.7751C60.7589 19.302 58.981 23.0467 58.981 28.0093H72.0786C72.0786 25.5135 72.7697 23.6045 74.1521 22.2822Z" fill="white"/>
<path d="M98.6072 14.7485C98.6108 14.1323 98.8276 13.5364 99.2208 13.0621C99.614 12.5877 100.159 12.2641 100.764 12.1463C101.369 12.0286 101.996 12.1239 102.538 12.416C103.081 12.7082 103.505 13.1792 103.74 13.7489C103.974 14.3187 104.004 14.9521 103.825 15.5415C103.645 16.1308 103.267 16.6398 102.754 16.9819C102.242 17.3239 101.627 17.4779 101.013 17.4178C100.4 17.3576 99.8268 17.0869 99.3905 16.6518C99.137 16.4048 98.9367 16.1085 98.802 15.7812C98.6673 15.4538 98.601 15.1024 98.6072 14.7485ZM98.9405 14.7485C98.9396 15.2945 99.128 15.824 99.4737 16.2467C99.8194 16.6694 100.301 16.9591 100.836 17.0666C101.372 17.174 101.928 17.0924 102.41 16.8358C102.892 16.5791 103.27 16.1633 103.48 15.6591C103.689 15.155 103.718 14.5937 103.56 14.0709C103.402 13.5481 103.068 13.0962 102.614 12.7922C102.161 12.4882 101.616 12.3509 101.072 12.4037C100.529 12.4565 100.02 12.6962 99.6339 13.0818C99.4105 13.2974 99.2337 13.5566 99.1144 13.8432C98.9952 14.1299 98.936 14.438 98.9405 14.7485ZM102.624 16.4151H102.007L101.647 15.5918C101.581 15.4277 101.486 15.2766 101.367 15.1451C101.329 15.099 101.282 15.0615 101.229 15.0351C101.175 15.0086 101.117 14.9939 101.057 14.9918H100.747V16.4151H100.241V13.0085H101.241C101.566 12.9902 101.888 13.0767 102.161 13.2551C102.269 13.3331 102.357 13.4371 102.415 13.5576C102.473 13.6782 102.5 13.8114 102.494 13.9451C102.5 14.1655 102.42 14.3796 102.271 14.5418C102.1 14.7194 101.877 14.8365 101.634 14.8751C101.746 14.9151 101.844 14.9841 101.921 15.0751C102.032 15.2077 102.125 15.3546 102.197 15.5118L102.624 16.4151ZM100.747 13.4151V14.5518H101.251C101.432 14.5647 101.612 14.514 101.761 14.4085C101.82 14.3543 101.866 14.2875 101.896 14.2131C101.926 14.1387 101.939 14.0585 101.934 13.9785C101.943 13.8971 101.93 13.8149 101.898 13.7396C101.866 13.6644 101.815 13.5986 101.751 13.5484C101.573 13.4448 101.368 13.3983 101.164 13.4151H100.747Z" fill="white"/>
</svg>
