<svg width="104" height="43" viewBox="0 0 104 43" fill="none" xmlns="http://www.w3.org/2000/svg">
<path d="M28.3416 20.2891H16.1641V34.9068H28.3416V20.2891Z" fill="url(#paint0_linear_51_564)"/>
<path d="M12.1929 5.41439C12.1929 8.41439 9.5262 10.8244 6.22953 10.8244C2.93286 10.8244 0.269531 8.40106 0.269531 5.41439C0.269531 2.42773 2.93953 0.00439453 6.22953 0.00439453C9.51953 0.00439453 12.1929 2.42439 12.1929 5.41439Z" fill="url(#paint1_linear_51_564)"/>
<path d="M0.00976562 42.8777V12.8755H12.194V42.8777H0.00976562Z" fill="url(#paint2_linear_51_564)"/>
<path d="M51.2199 16.6922C47.8041 14.1321 42.8371 12.8509 36.3188 12.8486H16.1641V20.2892H34.402C37.5378 20.2892 39.7958 20.8614 41.1759 22.006C42.556 23.1505 43.2471 25.0117 43.2494 27.5897C43.2494 30.1832 42.5649 32.0522 41.1959 33.1968C39.8269 34.3413 37.5623 34.9113 34.402 34.9069H16.1641V42.8775H36.3188C42.866 42.8775 47.8397 41.6029 51.2399 39.0539C54.6402 36.5048 56.3425 32.7845 56.347 27.8931C56.347 22.986 54.6379 19.2524 51.2199 16.6922Z" fill="url(#paint3_linear_51_564)"/>
<path d="M84.7026 34.3635C83.5492 35.1413 82.0291 35.5303 80.1423 35.5303C77.5354 35.5303 75.5419 34.8747 74.1618 33.5635C72.7817 32.2523 72.0906 30.3554 72.0883 27.873H58.9907C58.9907 32.8245 60.7686 36.5626 64.3244 39.0872C67.8803 41.6118 73.1517 42.8752 80.1389 42.8775C86.3616 42.8775 91.2408 41.8674 94.7766 39.8472C98.3124 37.8271 100.399 34.8447 101.037 30.8999H86.9894C86.7034 32.3066 85.8838 33.5479 84.7026 34.3635Z" fill="url(#paint4_linear_51_564)"/>
<path d="M74.1618 22.1592C75.5419 20.8257 77.5354 20.159 80.1423 20.159C82.1846 20.159 83.7936 20.6213 84.9693 21.5458C86.1449 22.4703 86.8272 23.8182 87.0161 25.5894H100.944C100.722 21.4891 98.8325 18.3433 95.2767 16.1521C91.7209 13.9608 86.6749 12.864 80.1389 12.8618C73.1517 12.8618 67.8803 14.1252 64.3244 16.6521C60.7686 19.1789 58.9907 22.9237 58.9907 27.8862H72.0883C72.0883 25.3905 72.7795 23.4815 74.1618 22.1592Z" fill="url(#paint5_linear_51_564)"/>
<path d="M98.6171 14.6254C98.6207 14.0093 98.8375 13.4134 99.2307 12.939C99.6239 12.4646 100.169 12.1411 100.774 12.0233C101.379 11.9055 102.006 12.0008 102.548 12.293C103.091 12.5851 103.515 13.0561 103.75 13.6259C103.984 14.1957 104.014 14.8291 103.834 15.4184C103.655 16.0078 103.277 16.5168 102.764 16.8588C102.252 17.2009 101.637 17.3549 101.023 17.2947C100.41 17.2345 99.8367 16.9639 99.4004 16.5287C99.1469 16.2817 98.9466 15.9854 98.8119 15.6581C98.6771 15.3308 98.6109 14.9793 98.6171 14.6254ZM98.9504 14.6254C98.9495 15.1715 99.1379 15.7009 99.4836 16.1236C99.8292 16.5463 100.311 16.8361 100.846 16.9435C101.382 17.0509 101.938 16.9694 102.42 16.7127C102.902 16.4561 103.28 16.0402 103.489 15.5361C103.699 15.0319 103.728 14.4706 103.57 13.9478C103.412 13.4251 103.078 12.9732 102.624 12.6692C102.171 12.3652 101.626 12.2279 101.082 12.2807C100.539 12.3335 100.03 12.5731 99.6438 12.9587C99.4204 13.1744 99.2436 13.4335 99.1243 13.7202C99.0051 14.0069 98.9459 14.3149 98.9504 14.6254ZM102.634 16.2921H102.017L101.657 15.4687C101.591 15.3047 101.496 15.1535 101.377 15.0221C101.339 14.976 101.292 14.9385 101.239 14.912C101.185 14.8856 101.127 14.8708 101.067 14.8687H100.757V16.2921H100.25V12.8854H101.25C101.576 12.8672 101.898 12.9536 102.17 13.1321C102.279 13.21 102.367 13.314 102.425 13.4346C102.483 13.5551 102.51 13.6884 102.504 13.8221C102.51 14.0425 102.43 14.2565 102.28 14.4187C102.11 14.5964 101.887 14.7134 101.644 14.7521C101.755 14.7921 101.854 14.8611 101.93 14.9521C102.042 15.0847 102.135 15.2315 102.207 15.3887L102.634 16.2921ZM100.757 13.2921V14.4287H101.26C101.442 14.4416 101.622 14.391 101.77 14.2854C101.83 14.2312 101.876 14.1645 101.906 14.0901C101.936 14.0157 101.949 13.9355 101.944 13.8554C101.952 13.774 101.94 13.6918 101.908 13.6166C101.876 13.5413 101.825 13.4755 101.76 13.4254C101.583 13.3218 101.378 13.2752 101.174 13.2921H100.757Z" fill="#2F59A3"/>
<defs>
<linearGradient id="paint0_linear_51_564" x1="22.2545" y1="18.789" x2="22.2545" y2="33.03" gradientUnits="userSpaceOnUse">
<stop stop-color="#2F59A3"/>
<stop offset="1" stop-color="#2EA7E0"/>
</linearGradient>
<linearGradient id="paint1_linear_51_564" x1="6.22953" y1="13.2644" x2="6.22953" y2="0.244395" gradientUnits="userSpaceOnUse">
<stop stop-color="#2F59A3"/>
<stop offset="1" stop-color="#2EA7E0"/>
</linearGradient>
<linearGradient id="paint2_linear_51_564" x1="6.1002" y1="45.5712" x2="6.1002" y2="12.7555" gradientUnits="userSpaceOnUse">
<stop stop-color="#2F59A3"/>
<stop offset="1" stop-color="#2EA7E0"/>
</linearGradient>
<linearGradient id="paint3_linear_51_564" x1="36.2555" y1="46.051" x2="36.2555" y2="13.6454" gradientUnits="userSpaceOnUse">
<stop stop-color="#2F59A3"/>
<stop offset="1" stop-color="#2EA7E0"/>
</linearGradient>
<linearGradient id="paint4_linear_51_564" x1="80.0156" y1="24.7795" x2="80.0156" y2="38.7805" gradientUnits="userSpaceOnUse">
<stop stop-color="#2F59A3"/>
<stop offset="1" stop-color="#2EA7E0"/>
</linearGradient>
<linearGradient id="paint5_linear_51_564" x1="79.9756" y1="7.63811" x2="79.9756" y2="25.8994" gradientUnits="userSpaceOnUse">
<stop stop-color="#2F59A3"/>
<stop offset="1" stop-color="#2EA7E0"/>
</linearGradient>
</defs>
</svg>
